<mxfile host="app.diagrams.net" agent="Mozilla/5.0 (Windows NT 10.0; Win64; x64) AppleWebKit/537.36 (KHTML, like Gecko) Chrome/139.0.0.0 Safari/537.36" version="28.0.9">
  <diagram name="Page-1" id="flowchart-aplikasi-laporan-optimized">
    <mxGraphModel dx="1534" dy="872" grid="1" gridSize="10" guides="1" tooltips="1" connect="1" arrows="1" fold="1" page="1" pageScale="1" pageWidth="1000" pageHeight="2000" math="0" shadow="0">
      <root>
        <mxCell id="0" />
        <mxCell id="1" parent="0" />
        <mxCell id="2" value="Mulai" style="ellipse;whiteSpace=wrap;html=1;fillColor=#e1d5e7;strokeColor=#9673a6;strokeWidth=3;fontSize=16;fontStyle=1;" parent="1" vertex="1">
          <mxGeometry x="400" y="40" width="160" height="80" as="geometry" />
        </mxCell>
        <mxCell id="3" value="Pengguna Membuka/Mengakses&#xa;Aplikasi" style="rounded=1;whiteSpace=wrap;html=1;fillColor=#dae8fc;strokeColor=#1f4e79;strokeWidth=3;fontSize=16;fontStyle=1;" parent="1" vertex="1">
          <mxGeometry x="350" y="160" width="260" height="80" as="geometry" />
        </mxCell>
        <mxCell id="4" value="Sudah memiliki akun?" style="rhombus;whiteSpace=wrap;html=1;fillColor=#fff2cc;strokeColor=#d6b656;strokeWidth=3;fontSize=16;fontStyle=1;" parent="1" vertex="1">
          <mxGeometry x="380" y="280" width="200" height="120" as="geometry" />
        </mxCell>
        <mxCell id="5" value="Registrasi Akun Baru" style="rounded=1;whiteSpace=wrap;html=1;fillColor=#f8cecc;strokeColor=#b85450;strokeWidth=3;fontSize=16;fontStyle=1;" parent="1" vertex="1">
          <mxGeometry x="60" y="460" width="200" height="80" as="geometry" />
        </mxCell>
        <mxCell id="6" value="Login dengan Akun&#xa;yang Ada" style="rounded=1;whiteSpace=wrap;html=1;fillColor=#d5e8d4;strokeColor=#82b366;strokeWidth=3;fontSize=16;fontStyle=1;" parent="1" vertex="1">
          <mxGeometry x="700" y="460" width="200" height="80" as="geometry" />
        </mxCell>
        <mxCell id="7" value="Halaman Login" style="rounded=1;whiteSpace=wrap;html=1;fillColor=#d5e8d4;strokeColor=#82b366;strokeWidth=3;fontSize=16;fontStyle=1;" parent="1" vertex="1">
          <mxGeometry x="60" y="580" width="200" height="80" as="geometry" />
        </mxCell>
        <mxCell id="8" value="Berhasil Masuk ke Aplikasi" style="rounded=1;whiteSpace=wrap;html=1;fillColor=#dae8fc;strokeColor=#1f4e79;strokeWidth=3;fontSize=16;fontStyle=1;" parent="1" vertex="1">
          <mxGeometry x="350" y="720" width="260" height="80" as="geometry" />
        </mxCell>
        <mxCell id="9" value="Pengguna Menekan Tombol Kamera" style="rounded=1;whiteSpace=wrap;html=1;fillColor=#dae8fc;strokeColor=#1f4e79;strokeWidth=3;fontSize=16;fontStyle=1;" parent="1" vertex="1">
          <mxGeometry x="350" y="840" width="260" height="80" as="geometry" />
        </mxCell>
        <mxCell id="10" value="Pengguna Mengambil Foto sebagai&#xa;Bukti Laporan" style="rounded=1;whiteSpace=wrap;html=1;fillColor=#dae8fc;strokeColor=#1f4e79;strokeWidth=3;fontSize=16;fontStyle=1;" parent="1" vertex="1">
          <mxGeometry x="350" y="960" width="260" height="80" as="geometry" />
        </mxCell>
        <mxCell id="11" value="Pengguna Mengisi Formulir Laporan:&#xa;• Judul laporan&#xa;• Kategori laporan&#xa;• Deskripsi laporan&#xa;• Alamat lengkap" style="rounded=1;whiteSpace=wrap;html=1;fillColor=#dae8fc;strokeColor=#1f4e79;strokeWidth=3;fontSize=16;fontStyle=1;" parent="1" vertex="1">
          <mxGeometry x="300" y="1080" width="360" height="140" as="geometry" />
        </mxCell>
        <mxCell id="12" value="Pengguna Menekan Tombol &quot;Laporkan&quot;" style="rounded=1;whiteSpace=wrap;html=1;fillColor=#dae8fc;strokeColor=#1f4e79;strokeWidth=3;fontSize=16;fontStyle=1;" parent="1" vertex="1">
          <mxGeometry x="350" y="1260" width="260" height="80" as="geometry" />
        </mxCell>
        <mxCell id="13" value="Sistem Mengirim Laporan ke Database" style="rounded=1;whiteSpace=wrap;html=1;fillColor=#e1d5e7;strokeColor=#9673a6;strokeWidth=3;fontSize=16;fontStyle=1;" parent="1" vertex="1">
          <mxGeometry x="350" y="1380" width="260" height="80" as="geometry" />
        </mxCell>
        <mxCell id="14" value="Database" style="shape=cylinder3;whiteSpace=wrap;html=1;boundedLbl=1;backgroundOutline=1;size=15;fillColor=#f5f5f5;strokeColor=#666666;strokeWidth=3;fontSize=16;fontStyle=1;" parent="1" vertex="1">
          <mxGeometry x="720" y="1360" width="120" height="120" as="geometry" />
        </mxCell>
        <mxCell id="15" value="Admin Menerima dan Memeriksa&#xa;Laporan" style="rounded=1;whiteSpace=wrap;html=1;fillColor=#ffe6cc;strokeColor=#d79b00;strokeWidth=3;fontSize=16;fontStyle=1;" parent="1" vertex="1">
          <mxGeometry x="350" y="1520" width="260" height="80" as="geometry" />
        </mxCell>
        <mxCell id="16" value="Laporan Sudah&#xa;Ditangani/Selesai?" style="rhombus;whiteSpace=wrap;html=1;fillColor=#fff2cc;strokeColor=#d6b656;strokeWidth=3;fontSize=16;fontStyle=1;" parent="1" vertex="1">
          <mxGeometry x="380" y="1640" width="200" height="120" as="geometry" />
        </mxCell>
        <mxCell id="17" value="Pengguna Memberikan&#xa;Feedback/Umpan Balik" style="rounded=1;whiteSpace=wrap;html=1;fillColor=#d5e8d4;strokeColor=#82b366;strokeWidth=3;fontSize=16;fontStyle=1;" parent="1" vertex="1">
          <mxGeometry x="350" y="1820" width="260" height="80" as="geometry" />
        </mxCell>
        <mxCell id="18" value="Selesai" style="ellipse;whiteSpace=wrap;html=1;fillColor=#e1d5e7;strokeColor=#9673a6;strokeWidth=3;fontSize=16;fontStyle=1;" parent="1" vertex="1">
          <mxGeometry x="400" y="1940" width="160" height="80" as="geometry" />
        </mxCell>
        <mxCell id="19" value="" style="endArrow=classic;html=1;rounded=0;exitX=0.5;exitY=1;exitDx=0;exitDy=0;entryX=0.5;entryY=0;entryDx=0;entryDy=0;strokeWidth=3;" parent="1" source="2" target="3" edge="1">
          <mxGeometry width="50" height="50" relative="1" as="geometry">
            <mxPoint x="480" y="140" as="sourcePoint" />
            <mxPoint x="530" y="90" as="targetPoint" />
          </mxGeometry>
        </mxCell>
        <mxCell id="20" value="" style="endArrow=classic;html=1;rounded=0;exitX=0.5;exitY=1;exitDx=0;exitDy=0;entryX=0.5;entryY=0;entryDx=0;entryDy=0;strokeWidth=3;" parent="1" source="3" target="4" edge="1">
          <mxGeometry width="50" height="50" relative="1" as="geometry">
            <mxPoint x="480" y="260" as="sourcePoint" />
            <mxPoint x="530" y="210" as="targetPoint" />
          </mxGeometry>
        </mxCell>
        <mxCell id="21" value="Tidak" style="endArrow=classic;html=1;rounded=0;exitX=0;exitY=0.5;exitDx=0;exitDy=0;strokeWidth=3;fontSize=14;fontStyle=1;" parent="1" edge="1">
          <mxGeometry width="50" height="50" relative="1" as="geometry">
            <mxPoint x="380.0000000000002" y="339.23" as="sourcePoint" />
            <mxPoint x="160" y="450" as="targetPoint" />
            <Array as="points">
              <mxPoint x="160" y="339" />
            </Array>
          </mxGeometry>
        </mxCell>
        <mxCell id="22" value="Ya" style="endArrow=classic;html=1;rounded=0;exitX=1;exitY=0.5;exitDx=0;exitDy=0;strokeWidth=3;fontSize=14;fontStyle=1;entryX=0.399;entryY=-0.031;entryDx=0;entryDy=0;entryPerimeter=0;" parent="1" source="4" target="6" edge="1">
          <mxGeometry width="50" height="50" relative="1" as="geometry">
            <mxPoint x="590" y="350" as="sourcePoint" />
            <mxPoint x="660" y="420" as="targetPoint" />
            <Array as="points">
              <mxPoint x="780" y="340" />
            </Array>
          </mxGeometry>
        </mxCell>
        <mxCell id="23" value="" style="endArrow=classic;html=1;rounded=0;exitX=0.5;exitY=1;exitDx=0;exitDy=0;entryX=0.5;entryY=0;entryDx=0;entryDy=0;strokeWidth=3;" parent="1" source="5" target="7" edge="1">
          <mxGeometry width="50" height="50" relative="1" as="geometry">
            <mxPoint x="160" y="560" as="sourcePoint" />
            <mxPoint x="160" y="570" as="targetPoint" />
          </mxGeometry>
        </mxCell>
        <mxCell id="24" value="" style="endArrow=classic;html=1;rounded=0;exitX=0.5;exitY=1;exitDx=0;exitDy=0;entryX=0;entryY=0.5;entryDx=0;entryDy=0;strokeWidth=3;" parent="1" source="7" target="8" edge="1">
          <mxGeometry width="50" height="50" relative="1" as="geometry">
            <mxPoint x="160" y="680" as="sourcePoint" />
            <mxPoint x="350" y="760" as="targetPoint" />
            <Array as="points">
              <mxPoint x="160" y="760" />
            </Array>
          </mxGeometry>
        </mxCell>
        <mxCell id="25" value="" style="endArrow=classic;html=1;rounded=0;exitX=0.5;exitY=1;exitDx=0;exitDy=0;entryX=1;entryY=0.5;entryDx=0;entryDy=0;strokeWidth=3;" parent="1" source="6" target="8" edge="1">
          <mxGeometry width="50" height="50" relative="1" as="geometry">
            <mxPoint x="800" y="560" as="sourcePoint" />
            <mxPoint x="610" y="760" as="targetPoint" />
            <Array as="points">
              <mxPoint x="800" y="760" />
            </Array>
          </mxGeometry>
        </mxCell>
        <mxCell id="26" value="" style="endArrow=classic;html=1;rounded=0;exitX=0.5;exitY=1;exitDx=0;exitDy=0;entryX=0.5;entryY=0;entryDx=0;entryDy=0;strokeWidth=3;" parent="1" source="8" target="9" edge="1">
          <mxGeometry width="50" height="50" relative="1" as="geometry">
            <mxPoint x="480" y="820" as="sourcePoint" />
            <mxPoint x="530" y="770" as="targetPoint" />
          </mxGeometry>
        </mxCell>
        <mxCell id="27" value="" style="endArrow=classic;html=1;rounded=0;exitX=0.5;exitY=1;exitDx=0;exitDy=0;entryX=0.5;entryY=0;entryDx=0;entryDy=0;strokeWidth=3;" parent="1" source="9" target="10" edge="1">
          <mxGeometry width="50" height="50" relative="1" as="geometry">
            <mxPoint x="480" y="940" as="sourcePoint" />
            <mxPoint x="530" y="890" as="targetPoint" />
          </mxGeometry>
        </mxCell>
        <mxCell id="28" value="" style="endArrow=classic;html=1;rounded=0;exitX=0.5;exitY=1;exitDx=0;exitDy=0;entryX=0.5;entryY=0;entryDx=0;entryDy=0;strokeWidth=3;" parent="1" source="10" target="11" edge="1">
          <mxGeometry width="50" height="50" relative="1" as="geometry">
            <mxPoint x="480" y="1060" as="sourcePoint" />
            <mxPoint x="530" y="1010" as="targetPoint" />
          </mxGeometry>
        </mxCell>
        <mxCell id="29" value="" style="endArrow=classic;html=1;rounded=0;exitX=0.5;exitY=1;exitDx=0;exitDy=0;entryX=0.5;entryY=0;entryDx=0;entryDy=0;strokeWidth=3;" parent="1" source="11" target="12" edge="1">
          <mxGeometry width="50" height="50" relative="1" as="geometry">
            <mxPoint x="480" y="1240" as="sourcePoint" />
            <mxPoint x="530" y="1190" as="targetPoint" />
          </mxGeometry>
        </mxCell>
        <mxCell id="30" value="" style="endArrow=classic;html=1;rounded=0;exitX=0.5;exitY=1;exitDx=0;exitDy=0;entryX=0.5;entryY=0;entryDx=0;entryDy=0;strokeWidth=3;" parent="1" source="12" target="13" edge="1">
          <mxGeometry width="50" height="50" relative="1" as="geometry">
            <mxPoint x="480" y="1360" as="sourcePoint" />
            <mxPoint x="530" y="1310" as="targetPoint" />
          </mxGeometry>
        </mxCell>
        <mxCell id="31" value="" style="endArrow=classic;html=1;rounded=0;exitX=1;exitY=0.5;exitDx=0;exitDy=0;entryX=0;entryY=0.5;entryDx=0;entryDy=0;entryPerimeter=0;strokeWidth=3;" parent="1" source="13" target="14" edge="1">
          <mxGeometry width="50" height="50" relative="1" as="geometry">
            <mxPoint x="620" y="1420" as="sourcePoint" />
            <mxPoint x="710" y="1420" as="targetPoint" />
          </mxGeometry>
        </mxCell>
        <mxCell id="32" value="" style="endArrow=classic;html=1;rounded=0;exitX=0.5;exitY=1;exitDx=0;exitDy=0;entryX=0.5;entryY=0;entryDx=0;entryDy=0;strokeWidth=3;" parent="1" source="13" target="15" edge="1">
          <mxGeometry width="50" height="50" relative="1" as="geometry">
            <mxPoint x="480" y="1480" as="sourcePoint" />
            <mxPoint x="530" y="1430" as="targetPoint" />
          </mxGeometry>
        </mxCell>
        <mxCell id="33" value="" style="endArrow=classic;html=1;rounded=0;exitX=0.5;exitY=1;exitDx=0;exitDy=0;entryX=0.5;entryY=0;entryDx=0;entryDy=0;strokeWidth=3;" parent="1" source="15" target="16" edge="1">
          <mxGeometry width="50" height="50" relative="1" as="geometry">
            <mxPoint x="480" y="1620" as="sourcePoint" />
            <mxPoint x="530" y="1570" as="targetPoint" />
          </mxGeometry>
        </mxCell>
        <mxCell id="34" value="Tidak" style="endArrow=classic;html=1;rounded=0;exitX=0;exitY=0.5;exitDx=0;exitDy=0;entryX=0;entryY=0.5;entryDx=0;entryDy=0;strokeWidth=3;fontSize=14;fontStyle=1;" parent="1" source="16" target="15" edge="1">
          <mxGeometry width="50" height="50" relative="1" as="geometry">
            <mxPoint x="370" y="1700" as="sourcePoint" />
            <mxPoint x="340" y="1560" as="targetPoint" />
            <Array as="points">
              <mxPoint x="300" y="1700" />
              <mxPoint x="300" y="1560" />
            </Array>
          </mxGeometry>
        </mxCell>
        <mxCell id="35" value="Ya" style="endArrow=classic;html=1;rounded=0;exitX=0.5;exitY=1;exitDx=0;exitDy=0;entryX=0.5;entryY=0;entryDx=0;entryDy=0;strokeWidth=3;fontSize=14;fontStyle=1;" parent="1" source="16" target="17" edge="1">
          <mxGeometry width="50" height="50" relative="1" as="geometry">
            <mxPoint x="480" y="1780" as="sourcePoint" />
            <mxPoint x="530" y="1730" as="targetPoint" />
          </mxGeometry>
        </mxCell>
        <mxCell id="36" value="" style="endArrow=classic;html=1;rounded=0;exitX=0.5;exitY=1;exitDx=0;exitDy=0;entryX=0.5;entryY=0;entryDx=0;entryDy=0;strokeWidth=3;" parent="1" source="17" target="18" edge="1">
          <mxGeometry width="50" height="50" relative="1" as="geometry">
            <mxPoint x="480" y="1920" as="sourcePoint" />
            <mxPoint x="530" y="1870" as="targetPoint" />
          </mxGeometry>
        </mxCell>
        <mxCell id="37" value="Menunggu" style="text;html=1;align=center;verticalAlign=middle;resizable=0;points=[];autosize=1;strokeColor=none;fillColor=none;fontSize=14;fontStyle=1;" parent="1" vertex="1">
          <mxGeometry x="200" y="1680" width="90" height="30" as="geometry" />
        </mxCell>
      </root>
    </mxGraphModel>
  </diagram>
</mxfile>
